HIERARCHY
ROOT mug1
{
	OFFSET 0.000000 0.000000 0.000000
	CHANNELS 6 Xposition Yposition Zposition Yrotation Xrotation Zrotation
	End Site
	{
		OFFSET 0.000000 0.000000 0.000000
	}
}
MOTION
Frames: 105
Frame Time: 0.008333334
2.016374 3.524210 3.583415 45.773330 2.401348 -1.470001 
2.016928 3.523862 3.583965 45.760760 2.376778 -1.459839 
2.017216 3.524039 3.583920 45.786530 2.385670 -1.439209 
2.016879 3.524231 3.583799 45.788440 2.390748 -1.464203 
2.016265 3.524182 3.583867 45.760570 2.384505 -1.473328 
2.015469 3.524321 3.583360 45.760380 2.388601 -1.472290 
2.014787 3.524140 3.582957 45.776550 2.400729 -1.426331 
2.014351 3.524065 3.582693 45.797860 2.461813 -1.423889 
2.014222 3.523943 3.582226 45.772840 2.418860 -1.448822 
2.014378 3.523837 3.582018 45.800330 2.469531 -1.409454 
2.014280 3.524353 3.581604 45.757570 2.384781 -1.466553 
2.014294 3.524246 3.581932 45.740990 2.423188 -1.485748 
2.014196 3.524322 3.582583 45.741490 2.448901 -1.474518 
2.014078 3.524251 3.583249 45.751620 2.412085 -1.432556 
2.013033 3.526969 3.585769 45.707160 1.787147 -1.678650 
2.012883 3.526661 3.586505 45.699500 1.931401 -1.653229 
2.013119 3.525453 3.584785 45.628700 2.543845 -1.588684 
2.011631 3.527910 3.587438 45.506230 1.957890 -1.859070 
2.011649 3.527908 3.587656 45.507710 1.932990 -1.842987 
2.011708 3.527926 3.587760 45.502990 1.953194 -1.844727 
2.012046 3.527667 3.587916 45.543790 1.952420 -1.831757 
2.011895 3.527746 3.587608 45.526450 1.907520 -1.827881 
2.011784 3.527793 3.587167 45.540930 1.929094 -1.824219 
2.011638 3.527825 3.586364 45.561070 1.945668 -1.819916 
2.011353 3.527818 3.585840 45.560710 1.938142 -1.821045 
2.011093 3.527788 3.585210 45.553310 1.923885 -1.829437 
2.012107 3.525439 3.582478 45.641360 2.479832 -1.575226 
2.012098 3.524743 3.582366 45.724040 2.440260 -1.489014 
2.011798 3.524730 3.581778 45.727180 2.448789 -1.493469 
2.011625 3.524349 3.581019 45.762910 2.504717 -1.463959 
2.011491 3.524175 3.580425 45.768650 2.501015 -1.449066 
2.011303 3.524180 3.579643 45.761050 2.499979 -1.457642 
2.011056 3.524184 3.578887 45.742490 2.498980 -1.461029 
2.010748 3.524156 3.577952 45.739390 2.495937 -1.436584 
2.010614 3.524117 3.577376 45.743260 2.476025 -1.440765 
2.010348 3.524092 3.576457 45.710400 2.482455 -1.441437 
2.010286 3.524074 3.576130 45.718090 2.464433 -1.438873 
2.010209 3.523960 3.575556 45.720520 2.456976 -1.424835 
2.010231 3.524032 3.575244 45.717390 2.473631 -1.438965 
2.010280 3.524015 3.574998 45.723820 2.480219 -1.440338 
2.010184 3.523977 3.574833 45.724500 2.484980 -1.433319 
2.010072 3.523933 3.574513 45.704880 2.465248 -1.412506 
2.009934 3.523957 3.574346 45.699610 2.461549 -1.417145 
2.009654 3.524070 3.573932 45.663210 2.483618 -1.438812 
2.009924 3.523977 3.573907 45.738710 2.437307 -1.440521 
2.009346 3.524509 3.573068 45.630180 2.528710 -1.536194 
2.009214 3.524603 3.572449 45.608140 2.553748 -1.546326 
2.008732 3.526490 3.573602 45.605340 2.119987 -1.761566 
2.008627 3.526435 3.573194 45.601580 2.110148 -1.765106 
2.007543 3.526552 3.573321 45.505050 2.085857 -1.760651 
2.007438 3.526899 3.572767 45.517310 2.019296 -1.787018 
2.009450 3.524184 3.572743 45.907990 2.334996 -1.449615 
2.009222 3.524067 3.572256 45.871520 2.333950 -1.435822 
2.009067 3.523974 3.571902 45.855990 2.358977 -1.442963 
2.008867 3.523947 3.571491 45.819360 2.376858 -1.423920 
2.009271 3.524107 3.571733 45.829210 2.419894 -1.427155 
2.009040 3.524015 3.571350 45.782100 2.400133 -1.402863 
2.008971 3.523858 3.571532 45.787760 2.363796 -1.397888 
2.008866 3.524026 3.571644 45.757000 2.379051 -1.395599 
2.008564 3.525064 3.571392 45.657880 2.517987 -1.552582 
2.008682 3.524078 3.572345 45.738540 2.395228 -1.373749 
2.008589 3.524081 3.572852 45.736020 2.394377 -1.375854 
2.008451 3.524085 3.573310 45.735680 2.383126 -1.372742 
2.008393 3.524030 3.573644 45.744000 2.405190 -1.361267 
2.008469 3.524009 3.573828 45.726140 2.402138 -1.368652 
2.008486 3.524000 3.573930 45.743420 2.439502 -1.357361 
2.008287 3.524121 3.574098 45.719910 2.399568 -1.371735 
2.008436 3.524231 3.573617 45.724700 2.474225 -1.413177 
2.008430 3.524279 3.573398 45.725800 2.458627 -1.413818 
2.008386 3.524386 3.572997 45.722420 2.428666 -1.418457 
2.008402 3.524387 3.572578 45.721210 2.425134 -1.422821 
2.008379 3.524238 3.572225 45.718000 2.419178 -1.405090 
2.008295 3.524356 3.571838 45.709840 2.428417 -1.425690 
2.008337 3.524154 3.571567 45.713700 2.414605 -1.401093 
2.008276 3.524257 3.571394 45.705200 2.425242 -1.420593 
2.007854 3.524685 3.571282 45.651070 2.483491 -1.503357 
2.008249 3.524266 3.571842 45.723710 2.425486 -1.420959 
2.008278 3.524248 3.572159 45.730170 2.428598 -1.416840 
2.008320 3.524258 3.572483 45.729190 2.432764 -1.418030 
2.008352 3.524206 3.573010 45.736610 2.428709 -1.414551 
2.008385 3.524261 3.573612 45.726940 2.428643 -1.411346 
2.008461 3.524221 3.574151 45.728430 2.451132 -1.417419 
2.008579 3.523997 3.574739 45.731060 2.421605 -1.412689 
2.008640 3.523998 3.575079 45.736320 2.416382 -1.410095 
2.008761 3.524030 3.575400 45.735290 2.438498 -1.401428 
2.008838 3.523950 3.575618 45.738160 2.402081 -1.405090 
2.008708 3.524014 3.575749 45.733360 2.405474 -1.406097 
2.008819 3.524039 3.575624 45.717120 2.404831 -1.406189 
2.008830 3.523989 3.575648 45.725960 2.400048 -1.408081 
2.009001 3.523874 3.575745 45.728590 2.441856 -1.409607 
2.008946 3.523940 3.575843 45.728640 2.412788 -1.403595 
2.008499 3.523939 3.576350 45.696500 2.359118 -1.415222 
2.007374 3.524214 3.576649 45.646680 2.502999 -1.489716 
2.005974 3.524105 3.578047 45.644560 2.518161 -1.440521 
2.005103 3.523580 3.579533 45.718380 2.436507 -1.347565 
2.004058 3.524116 3.581359 45.705660 2.513792 -1.362549 
2.004163 3.524316 3.582626 45.713380 2.498199 -1.366272 
2.004838 3.524378 3.583811 45.700910 2.523455 -1.363617 
2.006108 3.524286 3.584986 45.672900 2.519830 -1.367798 
2.007342 3.524462 3.585835 45.681530 2.501299 -1.387451 
2.008670 3.524387 3.586465 45.692440 2.495358 -1.388824 
2.009233 3.524437 3.586708 45.708280 2.481123 -1.401489 
2.009192 3.524386 3.586395 45.697110 2.480742 -1.398346 
2.008834 3.524217 3.585765 45.697320 2.481393 -1.374420 
2.008172 3.524094 3.585002 45.707550 2.461998 -1.386475 
